<?xml version="1.0" standalone="no"?>
<!DOCTYPE svg PUBLIC "-//W3C//DTD SVG 20010904//EN"
 "http://www.w3.org/TR/2001/REC-SVG-20010904/DTD/svg10.dtd">
<svg version="1.0" xmlns="http://www.w3.org/2000/svg"
 width="486.000000pt" height="486.000000pt" viewBox="0 0 486.000000 486.000000"
 preserveAspectRatio="xMidYMid meet">
<metadata>
Created by potrace 1.11, written by Peter Selinger 2001-2013
</metadata>
<g transform="translate(0.000000,486.000000) scale(0.100000,-0.100000)"
fill="#000000" stroke="none">
<path d="M1170 4248 c-270 -468 -536 -929 -683 -1183 -265 -458 -327 -570
-327 -592 0 -12 115 -221 256 -465 141 -244 333 -576 426 -738 94 -162 191
-331 217 -375 26 -44 92 -158 146 -252 l100 -173 1160 0 1161 0 104 181 c58
100 118 204 134 233 58 101 804 1393 851 1471 26 44 49 94 52 110 3 24 -14 62
-88 190 -50 88 -101 176 -111 195 -11 19 -51 87 -88 150 -37 63 -110 189 -162
280 -52 91 -197 343 -323 560 -125 217 -240 415 -254 441 -14 25 -46 80 -70
122 l-45 77 -1161 0 -1161 0 -134 -232z"/>
</g>
</svg>
